<?xml version="1.0" encoding="UTF-8"?>
<svg id="Layer_1" xmlns="http://www.w3.org/2000/svg" version="1.1" viewBox="0 0 400 373.47">
  <defs>
    <style>.st0{fill:#0e4877}.st1{fill:#c7ebfc}.st2{fill:#64bef0}</style>
  </defs>
  <path class="st0" d="M100.26,120.7l-.55-26.88,67.93-3.13c.37,2.76.37,5.34.37,7.92,0,53.39-35.53,76.4-68.12,76.4-36.08,0-73.27-28.17-73.27-75.11S62.34,27.36,103.95,27.36c15.28,0,31.3,3.5,46.58,11.23l-16.75,33.88c-9.94-4.97-21.72-8.65-32.59-8.65-17.12,0-31.85,9.02-31.85,36.08,0,23.38,17.67,39.95,32.59,39.95,9.76,0,18.41-5.52,21.72-18.78l-23.38-.37Z"/>
  <path class="st0" d="M176.84,100.82c0-39.77,28.9-74.19,67.01-74.19s67.38,32.95,67.38,73.64-29.64,73.09-67.93,73.09-66.46-33.32-66.46-72.54ZM270.18,103.03c0-17.12-9.94-31.67-25.41-31.67-16.57,0-28.17,15.1-28.17,32.22s8.65,31.3,27.62,31.3c16.57,0,25.96-14.91,25.96-31.85Z"/>
  <path class="st0" d="M162.4,292.54l-.55-26.88,67.93-3.13c.37,2.76.37,5.34.37,7.92,0,53.39-35.53,76.4-68.12,76.4-36.08,0-73.27-28.17-73.27-75.11s35.72-72.54,77.32-72.54c15.28,0,31.3,3.5,46.58,11.23l-16.75,33.88c-9.94-4.97-21.72-8.65-32.59-8.65-17.12,0-31.85,9.02-31.85,36.08,0,23.38,17.67,39.95,32.59,39.95,9.76,0,18.41-5.52,21.72-18.78l-23.38-.37Z"/>
  <path class="st0" d="M308.8,171.88c.86-.88,1.71-1.77,2.54-2.69,17.1-18.84,26.52-43.32,26.52-68.93C337.86,44.04,296.57,0,243.86,0c-23.05,0-44.61,8.75-61.59,24.81l-19.72-9.98C144.32,5.61,124.05.74,103.95.74c-27.41,0-52.94,9.19-71.86,25.86C11.39,44.83,0,70.86,0,99.9s11.2,55.59,31.54,74.61c16.3,15.24,37.65,24.73,59.66,26.73-18.77,18.05-29.06,42.92-29.06,70.5,0,29.09,11.2,55.59,31.54,74.61,18.44,17.24,43.35,27.13,68.35,27.13s47.5-9.09,64.71-25.59c2.85-2.73,5.8-5.94,8.7-9.66.89,1.08,1.8,2.14,2.73,3.19,17.59,19.61,41.48,30.41,67.27,30.41s50.03-10.93,68.04-30.78c17.1-18.84,26.51-43.32,26.51-68.93,0-55.22-39.83-98.68-91.2-100.22Z"/>
  <path class="st0" d="M238.98,272.65c0-39.77,28.9-74.19,67.01-74.19s67.38,32.95,67.38,73.64-29.64,73.09-67.93,73.09-66.46-33.32-66.46-72.54ZM332.32,274.86c0-17.12-9.94-31.67-25.41-31.67-16.57,0-28.17,15.1-28.17,32.22s8.65,31.3,27.62,31.3c16.57,0,25.96-14.91,25.96-31.85Z"/>
  <path class="st1" d="M167.64,90.69l-67.93,3.13.55,26.88,2.93.05,63.68-6.33c.74-4.94,1.13-10.21,1.13-15.81,0-2.58,0-5.15-.37-7.92Z"/>
  <path class="st1" d="M69.33,99.89c0-27.06,14.73-36.08,31.85-36.08,10.86,0,22.64,3.68,32.59,8.65l16.75-33.88c-15.28-7.73-31.3-11.23-46.58-11.23-41.61,0-77.32,27.06-77.32,72.54,0,10.25,1.77,19.61,4.92,27.97l44.57-4.43c-4.12-6.45-6.78-14.48-6.78-23.54Z"/>
  <path class="st2" d="M123.64,121.07c-3.31,13.26-11.97,18.78-21.72,18.78-9.13,0-19.29-6.22-25.8-16.41l-44.57,4.43c11.27,29.93,40.15,47.14,68.35,47.14s60.69-18.44,66.98-60.59l-63.68,6.33,20.45.32Z"/>
  <path class="st2" d="M244.23,134.87c-16.79,0-25.49-10.82-27.27-25.44l-39.11,3.89c5.32,33.53,31.65,60.03,65.46,60.03,38.29,0,67.93-34.43,67.93-73.09,0-.07,0-.13,0-.2l-41.07,4.08c-.41,16.47-9.74,30.73-25.94,30.73Z"/>
  <path class="st1" d="M243.86,26.62c-38.11,0-67.01,34.43-67.01,74.19,0,4.25.35,8.43,1,12.51l39.11-3.89c-.23-1.9-.35-3.85-.35-5.86,0-17.12,11.6-32.22,28.17-32.22,15.46,0,25.41,14.54,25.41,31.67,0,.38-.01.75-.02,1.12l41.07-4.08c-.09-40.6-28.59-73.44-67.38-73.44Z"/>
  <path class="st1" d="M163.32,235.65c10.86,0,22.64,3.68,32.59,8.65l16.75-33.88c-15.28-7.73-31.3-11.23-46.58-11.23-41.37,0-76.9,26.75-77.31,71.75l42.89-4.26c1.74-23.15,15.65-31.04,31.66-31.04Z"/>
  <path class="st2" d="M88.76,271.73c0,46.95,37.19,75.11,73.27,75.11,32.59,0,68.12-23.01,68.12-76.4,0-2.58,0-5.15-.37-7.92l-67.93,3.13.55,26.88,23.38.37c-3.31,13.26-11.97,18.78-21.72,18.78-14.91,0-32.59-16.57-32.59-39.95,0-1.76.07-3.44.19-5.04l-42.89,4.26c0,.26,0,.52,0,.78Z"/>
  <path class="st1" d="M306.92,243.2c5.33,0,10,1.73,13.84,4.69l47.45-4.72c-9.9-26.3-33.17-44.71-62.21-44.71-32.6,0-58.47,25.2-65.26,57.39l47.5-4.72c4.83-4.89,11.26-7.93,18.68-7.93Z"/>
  <path class="st2" d="M320.76,247.89c7.3,5.64,11.57,15.75,11.57,26.97,0,16.94-9.39,31.85-25.96,31.85-18.96,0-27.62-13.81-27.62-31.3,0-9.45,3.54-18.27,9.49-24.29l-47.5,4.72c-1.15,5.43-1.75,11.06-1.75,16.81,0,39.21,28.54,72.54,66.46,72.54s67.93-34.43,67.93-73.09c0-10.27-1.82-20.05-5.17-28.93l-47.45,4.72Z"/>
</svg>
