<?xml version="1.0" encoding="UTF-8"?>
<svg id="Layer_1" xmlns="http://www.w3.org/2000/svg" version="1.1" viewBox="0 0 1000 431.39">
  <defs>
    <style>.st0{fill:none}.st1{fill:#0e4877}.st2{fill:#c7ebfc}.st3{fill:#64bef0}</style>
  </defs>
  <g>
    <path class="st3" d="M675.49,151.95c0,17.56-4.15,34.63-11.95,49.92,9.28,50.84,21.76,97.24,47.55,120.76.16.15.32.3.48.45.44-1.15,1.02-2.32,1.77-3.49,4.32-6.73,14.22-13.6,35.47-17.39,1.27-.23,2.57-.44,3.89-.64l15.98-49.03c-25.36-5.75-33.04-11-36.36-15.32-13.33-17.33-52.12-155.66-62.97-194.96l-37.68,20.68h0c26.63,19.08,43.82,51.51,43.82,89.02h0Z"/>
    <path class="st3" d="M851.51,307.21l10.17-41.04c-4.03-.42-8.09-.86-12.15-1.31l-8.74,40.13c3.63.69,7.22,1.42,10.72,2.22h0Z"/>
    <path class="st3" d="M801.75,300.06l16.1-39.09c-3.96-.54-7.72-1.08-11.32-1.61l-14.97,40.22c3.35.1,6.75.26,10.19.48h0Z"/>
    <path class="st3" d="M893.24,320.84c19.59,9.06,27.42,18.22,29.88,25.83.98,3.02,1.11,5.79.8,8.22h0c-.3,2.33-1.34,7.48-.97,7.49,30.16,1.21,37.12-4.66,38.56-8.3,8.6-21.67,15.02-52.75,4.77-69.05-4.53-7.21-12.06-11.08-23.01-11.85-10.45-.73-25.06-1.82-41.69-3.25l-15.57,47.77c2.5,1.01,4.92,2.05,7.23,3.11v.03h0Z"/>
    <path class="st2" d="M791.56,299.58l14.97-40.22c-15.74-2.34-28.1-4.62-37.85-6.84l-15.98,49.03c11.53-1.74,24.75-2.39,38.86-1.98h0Z"/>
    <path class="st2" d="M822.25,302.05c6.31.81,12.5,1.81,18.54,2.95l8.74-40.13c-7.42-.83-14.84-1.7-22.12-2.63-3.31-.42-6.49-.84-9.57-1.26l-16.1,39.09c6.71.43,13.57,1.09,20.5,1.99h.01Z"/>
    <path class="st2" d="M886.01,317.73l15.57-47.77c-12.46-1.07-26.05-2.33-39.91-3.78l-10.17,41.04c12.63,2.87,24.33,6.43,34.5,10.52h0Z"/>
    <path class="st3" d="M850.95,382.79c-12.29,0-25.41-.86-38.8-2.59-27.16-3.51-52.38-10.18-70.99-18.8-7.41-3.43-13.12-6.87-17.52-10.24l-1.87,14.49c-.25,1.95,3.11,8.88,21.47,17.37,17.16,7.94,40.71,14.14,66.29,17.44,25.58,3.3,49.92,3.29,68.54-.03,19.91-3.55,24.93-9.4,25.18-11.35l1.87-14.49c-5.1,2.14-11.51,4.02-19.54,5.45-10.24,1.83-22,2.74-34.64,2.74h.01Z"/>
    <path class="st2" d="M900.91,343.81c-3.25-2.48-7.89-5.31-14.44-8.34-17.16-7.94-40.71-14.14-66.29-17.44-12.75-1.65-25.19-2.47-36.77-2.47s-22.43.83-31.77,2.5c-7.11,1.27-12.31,2.83-16.09,4.4-6.79,2.83-8.93,5.69-9.1,6.95h0c-.1.8.41,2.43,2.29,4.65,1.08,1.28,2.61,2.75,4.75,4.38,3.25,2.48,7.89,5.31,14.44,8.34,17.16,7.94,40.71,14.14,66.29,17.44,25.58,3.3,49.92,3.29,68.54-.03,6.3-1.12,11.1-2.48,14.73-3.86.47-.18.92-.36,1.35-.54,6.79-2.83,8.93-5.69,9.1-6.95h0c.16-1.25-1.18-4.57-7.03-9.03h0Z"/>
    <path class="st1" d="M990.37,269.91c-6.58-10.46-19.75-23.31-45.1-25.08-24.41-1.71-71.72-5.38-114.25-10.81-54.83-7-71.87-13.06-76.72-15.41-7.41-14.71-27.86-76.48-57.52-183.92L687.21,0l-87.39,47.96h0c-7.91-2.06-16.21-3.16-24.79-3.16-24.63,0-47.68,9.36-65.82,26.52l-21.08-10.67c-19.48-9.86-41.13-15.07-62.62-15.07-29.3,0-56.57,9.82-76.8,27.64-3.66,3.23-7.05,6.69-10.16,10.35-18.28-23.82-46.16-38.78-77.92-38.78-24.63,0-47.68,9.36-65.82,26.52l-21.08-10.67c-19.48-9.86-41.13-15.07-62.62-15.07-29.3,0-56.57,9.82-76.8,27.64C12.18,92.71,0,120.53,0,151.56s11.24,57.65,31.72,77.82l-25.86,1.37,2.79,167.19,87.84,1.34s81.5.64,94.8.64c22.88,0,44.3-5.47,60.63-22.35,11.36,12.05,31.17,28.54,66.04,26.3l82.36-7.36,14.45,15.58,125.7-19.56-.27,8.25,99.57,1.91-.91-70.45,20.85-36.66c8.21,19.12,18.56,35.61,32.12,47.99.26.24.52.48.78.72l2.92,2.62-1.95,15.12c-2.96,22.91,18.89,38.11,37.74,46.84,19.73,9.13,46.22,16.17,74.59,19.84,13.89,1.79,27.49,2.7,40.41,2.7s25.83-.99,36.77-2.94c37.05-6.61,46.77-23.07,48.4-35.72l.22-1.71c12.56-.02,46.08-.78,56.26-26.42,5.73-14.43,9.74-30.01,11.29-43.88,2.31-20.68-.68-37.78-8.88-50.81v-.02h-.01ZM903.26,389.09c-.25,1.95-5.27,7.79-25.18,11.35-18.62,3.32-42.96,3.33-68.54.03-25.58-3.3-49.12-9.5-66.29-17.44-18.36-8.5-21.73-15.42-21.47-17.37l1.87-14.49c4.39,3.37,10.11,6.81,17.52,10.24,18.61,8.62,43.83,15.29,70.99,18.8,13.39,1.73,26.51,2.59,38.8,2.59s24.4-.91,34.64-2.74c8.04-1.43,14.44-3.31,19.54-5.45l-1.87,14.49h-.01ZM907.94,352.84h0c-.16,1.26-2.3,4.12-9.1,6.95-.43.18-.88.36-1.35.54-3.64,1.39-8.43,2.74-14.73,3.86-18.62,3.32-42.96,3.34-68.54.03-25.58-3.3-49.12-9.5-66.29-17.44-6.55-3.03-11.19-5.86-14.44-8.34-2.14-1.63-3.66-3.1-4.75-4.38-1.88-2.23-2.39-3.86-2.29-4.65h0c.16-1.26,2.3-4.12,9.1-6.95,3.77-1.57,8.98-3.13,16.09-4.4,9.34-1.67,20.12-2.5,31.77-2.5s24.02.82,36.77,2.47c25.58,3.3,49.12,9.5,66.29,17.44,6.55,3.03,11.19,5.87,14.44,8.34,5.85,4.46,7.19,7.78,7.03,9.03h0ZM961.51,354.1c-1.45,3.64-8.41,9.51-38.56,8.3-.37-.02.67-5.17.97-7.49h0c.31-2.43.18-5.2-.8-8.22-2.47-7.61-10.3-16.77-29.88-25.83-2.31-1.07-4.72-2.11-7.23-3.11-10.17-4.09-21.87-7.65-34.5-10.52-3.5-.8-7.08-1.53-10.72-2.22-6.04-1.14-12.23-2.13-18.54-2.95-6.93-.9-13.79-1.56-20.5-1.99-3.44-.22-6.84-.38-10.19-.48-14.11-.42-27.34.24-38.86,1.98-1.32.2-2.62.41-3.89.64-21.25,3.79-31.15,10.66-35.47,17.39-.75,1.17-1.33,2.34-1.77,3.49-.16-.15-.32-.3-.48-.45-25.79-23.52-38.26-69.91-47.55-120.76,7.8-15.3,11.95-32.36,11.95-49.92,0-37.51-17.2-69.94-43.82-89.02h0l37.68-20.68c10.85,39.3,49.63,177.62,62.97,194.96,3.32,4.32,11,9.57,36.36,15.32,9.75,2.21,22.11,4.5,37.85,6.84,3.59.53,7.36,1.07,11.32,1.61,3.08.42,6.26.84,9.57,1.26,7.28.93,14.7,1.81,22.12,2.63,4.06.45,8.11.89,12.15,1.31,13.86,1.45,27.45,2.71,39.91,3.78,16.64,1.43,31.24,2.52,41.69,3.25,10.95.77,18.47,4.64,23.01,11.85,10.25,16.3,3.84,47.38-4.77,69.05l-.02-.02Z"/>
  </g>
  <g>
    <polygon class="st0" points="595.33 288.43 588.63 289.08 592.24 294.47 595.33 288.43"/>
    <polygon class="st2" points="88.78 256.92 89.26 304.29 69.46 304.76 70.56 255.81 34.76 257.71 36.18 342.4 69.56 339.18 69.77 330.9 89.42 329 89.51 337.25 123.06 334.01 120.15 254.23 88.78 256.92"/>
    <polygon class="st3" points="36.66 371.62 68.66 374.15 69.56 339.18 36.18 342.4 36.66 371.62"/>
    <polygon class="st3" points="89.89 370.67 124.43 371.46 123.06 334.01 89.51 337.25 89.89 370.67"/>
    <path class="st3" d="M192.07,342.15c-10.65,0-17.52-5.07-21.01-12.77l-34.03,3.28c7.43,24.43,28.27,42.6,54.24,42.6,29.78,0,53.47-24.19,57.76-53.41l-36.17,3.49c-2.97,9.67-10.17,16.81-20.8,16.81h0Z"/>
    <path class="st2" d="M191.76,249c-32.79,0-57.67,29.62-57.67,63.84,0,6.89,1.04,13.56,2.95,19.82l34.03-3.28c-1.85-4.1-2.75-8.94-2.75-14.16,0-14.73,9.98-27.72,24.24-27.72,13.31,0,21.86,12.51,21.86,27.25,0,3.71-.53,7.3-1.54,10.6l36.17-3.49c.46-3.11.7-6.28.7-9.49,0-35.01-24.55-63.37-57.98-63.37h-.01Z"/>
    <path class="st3" d="M318.33,375.42c4.12,0,8.56-.16,13.15-.79l.16-45.15c-3.64,1.58-8.55,2.53-13.62,2.53-10.65,0-21.9-4.18-22.17-14.68l-37.98,3.67c1.15,28.27,19.96,54.42,60.46,54.42h0Z"/>
    <path class="st2" d="M331.48,292.72l-3.17-40.4c-2.85-.32-5.7-.48-8.55-.48-39.29,0-61.94,34.06-61.94,66.38,0,.93.02,1.85.06,2.77l37.98-3.67c0-.13-.01-.25-.01-.37,0-12.99,12.51-24.24,35.64-24.24h0Z"/>
    <polygon class="st3" points="345.27 375.89 376.32 371.3 376.95 329.48 423.53 379.7 450.14 356.09 403.72 311.73 407.68 306.54 342.65 312.82 345.27 375.89"/>
    <polygon class="st2" points="412.44 246.46 376.79 293.36 379.8 251.53 340.2 253.91 342.65 312.82 407.68 306.54 439.69 264.52 412.44 246.46"/>
    <polygon class="st3" points="457.27 376.84 530.62 365.28 528.4 338.51 483.25 344.05 482.62 328.21 521.59 324.09 520.16 301.91 481.03 305.4 480.77 299.49 453.43 302.13 457.27 376.84"/>
    <polygon class="st2" points="528.24 287.65 527.61 249.32 451.09 256.76 453.43 302.13 480.77 299.49 480.4 291.3 528.24 287.65"/>
    <polygon class="st2" points="646.42 261.36 615.06 249.79 595.33 288.43 633.1 284.78 646.42 261.36"/>
    <polygon class="st2" points="561.67 248.84 529.35 270.86 546.55 293.14 588.63 289.08 561.67 248.84"/>
    <polygon class="st3" points="633.1 284.78 595.33 288.43 592.24 294.47 588.63 289.08 546.55 293.14 571.17 325.04 569.59 372.88 610.94 373.68 610.3 324.88 633.1 284.78"/>
  </g>
  <g>
    <path class="st2" d="M179.17,141.72l-72.6,3.35.59,28.73,3.14.05,68.06-6.77c.79-5.28,1.21-10.91,1.21-16.9,0-2.75,0-5.51-.39-8.46h0Z"/>
    <path class="st2" d="M74.1,151.56c0-28.92,15.74-38.56,34.04-38.56,11.61,0,24.2,3.94,34.83,9.25l17.9-36.2c-16.33-8.26-33.45-12-49.78-12-44.47,0-82.64,28.92-82.64,77.52,0,10.96,1.9,20.96,5.26,29.9l47.64-4.74c-4.4-6.89-7.25-15.47-7.25-25.16h0Z"/>
    <path class="st3" d="M132.14,174.19c-3.54,14.17-12.79,20.07-23.22,20.07-9.76,0-20.62-6.65-27.58-17.54l-47.64,4.74c12.04,31.99,42.91,50.38,73.05,50.38s64.86-19.71,71.59-64.76l-68.06,6.77,21.85.34h0Z"/>
    <path class="st3" d="M261.01,188.94c-17.94,0-27.24-11.57-29.14-27.19l-41.8,4.16c5.68,35.84,33.82,64.15,69.96,64.15,40.93,0,72.6-36.79,72.6-78.11v-.21l-43.89,4.36c-.43,17.6-10.41,32.84-27.72,32.84h0Z"/>
    <path class="st2" d="M260.62,73.25c-40.73,0-71.62,36.79-71.62,79.29,0,4.55.38,9.01,1.07,13.37l41.8-4.16c-.25-2.03-.37-4.12-.37-6.26,0-18.3,12.4-34.43,30.1-34.43,16.53,0,27.15,15.54,27.15,33.84,0,.4-.01.8-.02,1.2l43.89-4.36c-.1-43.39-30.56-78.49-72.01-78.49,0,0,.01,0,.01,0Z"/>
    <path class="st2" d="M422.55,112.99c11.61,0,24.2,3.94,34.83,9.25l17.9-36.2c-16.33-8.26-33.45-12-49.78-12-44.21,0-82.19,28.59-82.63,76.69l45.84-4.56c1.86-24.74,16.73-33.17,33.84-33.17h0Z"/>
    <path class="st3" d="M342.86,151.56c0,50.17,39.74,80.28,78.31,80.28,34.83,0,72.8-24.59,72.8-81.65,0-2.75,0-5.51-.39-8.46l-72.6,3.35.59,28.73,24.99.39c-3.54,14.17-12.79,20.07-23.22,20.07-15.94,0-34.83-17.71-34.83-42.7,0-1.88.07-3.67.2-5.39l-45.84,4.56c0,.28-.01.56-.01.84v-.02h0Z"/>
    <path class="st2" d="M576.01,121.06c5.7,0,10.69,1.85,14.79,5.02l50.71-5.04c-10.58-28.1-35.45-47.79-66.49-47.79-34.85,0-62.49,26.93-69.75,61.33l50.76-5.05c5.16-5.22,12.03-8.47,19.97-8.47h.01Z"/>
    <path class="st3" d="M590.8,126.08c7.8,6.03,12.36,16.83,12.36,28.83,0,18.1-10.04,34.04-27.74,34.04-20.27,0-29.51-14.76-29.51-33.45,0-10.1,3.78-19.53,10.14-25.96l-50.76,5.05c-1.23,5.81-1.87,11.82-1.87,17.96,0,41.91,30.5,77.52,71.03,77.52s72.6-36.79,72.6-78.11c0-10.98-1.95-21.42-5.52-30.92l-50.71,5.04h-.02,0Z"/>
  </g>
</svg>
